<svg>
    <path fill="#005BAB" d="M205.2,17.1 C171.6,7.4,163.2,36.2,157,39.7 150.8,43.2,129.1,41.9,123.7,45.5 118.4,49,106.4,69,115.3,87.1 124.2,105.3,147.6,97.3,147.6,97.3 147.6,97.3,137,108.4,117.9,117.2 116.9,117.7,115.8,118.1,114.8,118.5 113.2,124.7,111.8,135.8,119.8,141.9 120.2,142.3,109,141,105.9,138.8 103.3,136.9,101,129,100.3,122.9 89.4,125,80.7,124,75.3,123.4 62,131.3,48.2,153.9,43.4,163.7 38.5,173.5,31.5,190.6,24.1,194.9 18.7,198,4.7,195.6,3.1,183.2 1.9,173.7,15.8,154,26.9,141.6 38,129.2,45.9,120.1,49,116.2 49.4,114.4,69.3,59.3,82.8,48.2 92.4,40.3,103.9,36,125.3,34.9 151.9,33.6,144.9,28.8,166.5,16.1 191.6,1.4,204.3,14.9,205.2,17.1z"/>
    <path fill="#FFE600" d="M122.8,95 C114.4,86.1,111.5,63,120.1,53.4 134.7,37,149.6,45.8,157.8,40.5 169.7,33,178.8,16.2,184.8,15.2 195.5,13.5,202.8,14.9,204.7,18.3 208.2,24.5,199.1,35.9,196.8,38.2 193.2,41.8,196.4,52.4,196.4,52.4 192.8,57.7,175.6,58.6,171.6,63.9 167.6,69.2,160.7,94.6,145.5,98 137.4,99.9,130.3,103,122.8,95z"/>
    <path fill="#ED1C24" d="M60,106.1 C45.4,119.8,43.1,147.2,43.1,147.2 68.8,140.2,78.5,123.8,78.5,123.8 65.3,124.2,60,106.1,60,106.1z"/>
    <path fill="#ED1C24" d="M261.5,52.3 C273.4,55.5,256.3,73.3,294.4,83.9 288.5,35.5,261.5,52.3,261.5,52.3z"/>
    <path fill="#6D67AF" d="M181.7,21.5 C177.6,27.9,180.9,34.8,186.2,36.1 193.8,37.9,203.5,30.9,201.7,22.8 199.9,14.9,185.1,16.2,181.7,21.5z"/>
    <path fill="#72BF44" d="M203.8,40 C212.7,28.7,208.1,17.2,208.1,17.2 243,27.8,277.9,50.4,277.9,50.4 277.9,50.4,269.7,52.4,257.5,49.3 246.4,46.4,234.8,33.3,203.8,40z"/>
    <path fill="#A96752" d="M62.7,90.5 C69.9,99.6,78.3,104.4,98.7,125 119.1,145.6,129.5,153,137.5,159.2 145.5,165.3,158.5,179.8,163.1,180.5 167.7,181.2,171.4,178.1,171.4,178.1 171.4,178.1,142,157.1,129.6,145.6 117.1,134.1,80.7,91.7,75.9,88.4 71.1,85.1,66.2,84.8,62.7,90.5z"/>
    <path fill="#F58220" d="M211,44.5 C226.8,19.4,255.7,54,255.7,54 230.7,47.8,211,44.5,211,44.5z"/>
    <path fill="#F58220" d="M129.4,140.4 C140.7,147.7,127.8,155,127.8,155 127.8,155,136.1,168.9,145.1,160 154,151.1,146.8,144.1,142.1,142 137.5,139.9,129.4,140.4,129.4,140.4z"/>
    <path fill="#F58220" d="M77.5,87.4 C84.2,100.4,69.9,102.5,69.9,102.5 69.9,102.5,82.5,115.5,91.1,111.6 97,108.9,94.8,96.2,88.3,91.7 81.8,87.2,77.5,87.4,77.5,87.4z"/>
    <path fill="#F58220" d="M114.4,85.9 C113.9,76,118.7,60.1,118.7,60.1 123.5,71.9,120.9,83.1,120.9,83.1 126.2,77.3,129.5,75.4,129.5,75.4 130.2,89.4,127.2,97,127.2,97 145.2,95.2,154.3,86.2,154.3,86.2 153.8,88.6,153.3,91,152.8,93.4 156.5,91.2,161.2,83.7,161.2,83.7 160.7,92.6,152.5,103.2,152.5,103.2 151.8,100.7,151.1,98.2,150.4,95.7 137.9,105.6,120.4,98.6,120.4,98.6 118,93.3,118.9,84.9,118.9,84.9 117.4,85.233,115.9,85.567,114.4,85.9z"/>
    <path fill="#003465" d="M64.3,88.6 C64.3,88.6,65.2,83.3,69.8,83.1 71.9,83,73.5,84.9,75.8,88.4 77.7,91.5,80.3,94.5,80.3,94.5 76.5,92.2,74.1,88.8,71,87.6 68,86.5,64.3,88.6,64.3,88.6z"/>
    <path fill="#003465" d="M93.3,108.4 C93.3,108.4,104.4,120,110.1,125 115.8,129.9,121,134,124.8,137.6 128.6,141.2,134.1,148.7,134.1,148.7 134.1,148.7,126.5,142.5,123.2,139.7 119.9,136.9,109.1,129.5,103.7,123.5 98.4,117.7,93.3,108.4,93.3,108.4z"/>
    <path fill="#003465" d="M88.4,114.1 C88.4,114.1,95.2,120,100.3,124.9 105.4,129.8,117.1,140,117.1,140 117.1,140,106.2,135.3,98.8,127.1 91.4,118.9,88.4,114.1,88.4,114.1z"/>
    <path fill="#003465" d="M119,142.2 C126.9,149.5,134.2,153.5,134.2,153.5 133.233,154.2,132.267,154.9,131.3,155.6 126.2,151.5,119,142.2,119,142.2z"/>
    <path fill="#003465" d="M147.5,157.9 C162.3,171.7,171.4,178.2,171.4,178.2 158.2,171.9,145.9,161.2,145.9,161.2 146.433,160.1,146.967,159,147.5,157.9z"/>
    <path fill="#003465" d="M135.8,31.8 C153.1,25.9,161.5,12.4,168.9,8.2 178.1,2.9,187.9,4.3,187.9,4.3 186.967,2.867,186.033,1.433,185.1,0 206.9,-0.6,207.4,18.3,207.4,18.3 203.4,7.9,192.3,5.5,192.3,5.5 194.7,8.1,196.8,12.2,196.8,12.2 196.8,12.2,188.2,7,177.9,9.6 161.4,13.9,158.3,30.2,135.8,31.8z"/>
    <path fill="#003465" d="M113.3,57.4 C113.3,57.4,118.5,44.6,128,40.5 139.1,35.7,146.4,37.6,154.7,34.4 166.8,29.7,169.9,18.6,177.9,14.7 187.1,10.2,196.2,16.3,196.2,16.3 196.2,16.3,184,14.3,177.7,18.9 169.6,24.8,167.5,34.9,156.6,39.4 147.5,43.2,136,40.5,128.6,44.1 119.2,48.5,113.3,57.4,113.3,57.4z"/>
    <path fill="#003465" d="M206.1,18.6 C206.2,24.7,203.5,33,195.5,37.1 186.8,41.6,183.9,34.7,182.5,27.2 180.1,46.1,191.7,45.1,193.1,43.8 190,53.8,198.3,54.4,198.3,54.4 193.4,48.2,199.4,41.1,203.6,34.4 207.5,28.1,207.5,21.9,206.1,18.6z"/>
    <path fill="#003465" d="M208.1,19.2 C283,21.5,301.1,74.2,296.1,88 293.8,84,289.5,75.1,274.1,67 256.1,57.5,227.4,46,201.1,44.5 241.7,41,282,63.8,290.4,72.4 276.8,30.5,208.1,19.2,208.1,19.2z"/>
    <path fill="#003465" d="M214.7,25.2 C214.7,25.2,213.4,26.9,214.2,28.4 215,29.9,217.5,29.6,220.9,30.1 227.5,31.2,230.1,34.5,230.1,34.5 226.4,33.1,225,32.8,220.9,32.8 216.7,32.8,212.1,32.9,211.5,30.1 210.8,26.5,213.5,25.2,214.7,25.2z"/>
    <path fill="#003465" d="M200.6,56.3 C213.1,61.7,264,61.7,288.4,79.9 264,68.9,212.3,67.5,200.6,56.3z"/>
    <path fill="#003465" d="M110.2,122.4 C137.9,112.9,154.2,87.3,154.2,87.3 154,94.2,153,99.1,153,99.1 164.6,86.6,162.3,80,170.5,69 165.9,81.2,168.3,83.8,162.2,94.2 158.2,101,152.1,105.6,149,116.1 147.8,110.6,148.3,102.7,148.3,102.7 128.4,123.8,110.2,122.4,110.2,122.4z"/>
    <path fill="#003465" d="M168,85.8 C173.5,79.3,166.3,67.3,182.4,59.2 173.7,69,177.5,81.4,168,85.8z"/>
    <path fill="#003465" d="M179.9,69.4 C186,60.7,193.1,65.1,198.1,55.4 190.3,60.8,185,52.5,179.9,69.4z"/>
    <path fill="#003465" d="M118.1,58.8 C118.1,58.8,104.7,79.1,110,87.2 112.4,90.9,118.7,86.4,118.7,86.4 118.7,86.4,114.7,95.5,117.7,99.4 120.7,103.3,126,100,127.9,97.4 127.9,97.4,122.2,99.6,120.8,95.4 118.5,88.9,125.1,76.7,125.1,76.7 125.1,76.7,115.4,87.1,113.7,82.4 112,77.7,118.1,58.8,118.1,58.8z"/>
    <path fill="#003465" d="M132.8,31.6 C82.5,25.3,64.5,52.9,64.5,52.9 68.2,51.3,73.7,50.5,73.7,50.5 48.6,81.8,49.7,110.7,49.7,110.7 53.1,109.9,58.2,107,58.2,107 58.2,107,40.2,129.3,32.6,138.3 25,147.3,-5.5,184,1.2,194.3 7.9,204.6,34,168.6,38.4,159.9 32.4,165.9,10.7,194.3,6.3,189.8 1.6,185,15.5,167.2,23.8,156.4 32.1,145.6,61.4,106.2,74.1,93.1 63.3,101.2,54.4,104.3,54.4,104.3 58.3,66.5,85.4,47.4,85.4,47.4 83.167,47.033,80.933,46.667,78.7,46.3 99.5,32.1,129.5,32.1,132.8,31.6z"/>
    <path fill="#003465" d="M49.2,113.2 C39.3,128.8,8.9,152.4,0.4,179 -5.8,161.1,32,128.8,49.2,113.2z"/>
    <path fill="#003465" d="M11.5,194.6 C13.6,200.7,17.1,200.9,25.7,192.8 37.1,182.2,50.8,155,57.4,147.3 49.6,153.6,44.1,153.2,44.1,153.2 45.8,138.2,61.1,121.9,61.1,121.9 52.4,135.9,49.7,147.3,49.7,147.3 49.7,147.3,57.6,144.2,61.6,140.4 66.4,135.9,69.7,131.3,77.2,127.8 73.9,131.2,67.2,136.7,58.7,150.5 50.2,164.3,43.1,181.3,32.1,194.6 27.8,199.8,22.6,204,18.5,204.7 13.7,205.5,10.4,202,11.5,194.6z"/>
    <path fill="#003465" d="M63.8,78.8 C79.1,74,92.6,59.7,92.6,59.7 91.1,66.2,88,72.7,88,72.7 107.7,64.9,116.3,45.8,116.3,45.8 109.6,73.4,81.9,79.7,81.9,79.7 82.7,76.3,84.2,72.3,84.2,72.3 73.7,80.8,63.8,78.8,63.8,78.8z"/>
    <path fill="#003465" d="M78.7,87.6 C80,87.3,84.9,86.3,85.9,90.6 87,94.9,84.9,99.3,82.2,101.3 79.5,103.3,75.4,105.3,71.4,103.2 74.7,102.6,78.7,101.7,81,96.9 83.2,92.1,82,88.3,78.7,87.6z"/>
    <path fill="#003465" d="M76.5,106.4 C89,103.6,87.2,93.6,87.2,93.6 95.4,97.8,85.8,110.6,76.5,106.4z"/>
    <path fill="#003465" d="M80.7,111.2 C93.2,108.4,91.4,98.4,91.4,98.4 99.5,102.5,90,115.4,80.7,111.2z"/>
    <path fill="#003465" d="M65.8,104.2 C65,127.3,96.5,126.1,96.5,126.1 63,132.5,63,110.1,65.8,104.2z"/>
    <path fill="#003465" d="M98.3,127.9 C102.5,131.8,101.9,139.1,104.1,140.8 106.3,142.5,112.8,140.2,116.1,142.9 111.4,142.4,105,146.9,102.1,144.8 99.2,142.8,100.9,133.5,98.3,127.9z"/>
    <path fill="#003465" d="M116.7,121.3 C115.3,125.2,117.2,129,117.2,129 117.2,129,117.9,122.7,121.6,120.3 119.5,120.4,116.7,121.3,116.7,121.3z"/>
    <path fill="#003465" d="M129.4,140.4 C129.4,140.4,137.7,137.5,139.8,139.9 141.9,142.3,140.9,148.6,138.7,152.1 136.5,155.6,133.7,158.3,129.8,158.1 127.3,158,126,155.6,126,155.6 126,155.6,130.8,156.8,133.7,152.9 136.6,149,136.9,145.8,136.4,143.7 135.4,140.3,129.4,140.4,129.4,140.4z"/>
    <path fill="#003465" d="M132.4,159.7 C142.4,159.1,141.9,146.6,141.9,146.6 148.5,152.4,139.7,165.5,132.4,159.7z"/>
    <path fill="#003465" d="M137.5,162.6 C147,161.5,146.3,152.6,146.3,152.6 151.8,157.5,144.8,167.4,137.5,162.6z"/>
    <path fill="#003465" d="M186.2,26 C186.2,22.7,188.5,20.1,191.4,20.1 194.3,20.1,196.6,22.7,196.6,26 196.6,29.3,194.3,31.9,191.4,31.9 188.5,31.9,186.2,29.2,186.2,26z"/>
    <path fill="#FFFFFF" d="M189.1,26 C189.1,24.6,190.1,23.4,191.4,23.4 192.6,23.4,193.7,24.5,193.7,26 193.7,27.4,192.7,28.6,191.4,28.6 190.1,28.5,189.1,27.4,189.1,26z"/>
</svg>
